<svg width="76" height="43" viewBox="0 0 76 43" fill="none" xmlns="http://www.w3.org/2000/svg">
<path d="M53.3272 6.38916L73.776 18.2951C74.455 18.6905 75.3247 18.4861 75.7566 17.8296C75.9154 17.5881 76 17.3055 76 17.0165V16.7408C76 15.9105 75.5708 15.1391 74.8653 14.7013L53.4457 1.41002C51.9994 0.51256 50.2399 0.271629 48.6056 0.747233L1.40979 14.4816C0.574466 14.7247 0 15.4902 0 16.3602V16.4048C0 16.7578 0.103383 17.1031 0.297385 17.3981C0.724936 18.048 1.52046 18.3515 2.27229 18.1514L48.7649 5.7762C50.3067 5.36582 51.9484 5.5864 53.3272 6.38916Z" fill="#F2C231"/>
<path fill-rule="evenodd" clip-rule="evenodd" d="M17.0146 22.1724C15.4624 22.5537 14.2353 23.5775 13.6986 24.939C13.3036 25.9412 13.2553 26.4982 13.2553 30.0442V33.3957H14.8205H16.3857V32.1783V30.9609H18.5596H20.7335V32.1783V33.3957H22.3497H23.966L23.9275 29.8522C23.8854 25.966 23.8597 25.7407 23.3307 24.6325C22.9771 23.8916 22.0931 22.9906 21.3547 22.6187C20.1418 22.0078 18.4097 21.8297 17.0146 22.1724ZM28.0975 22.1464C27.1949 22.3098 25.8712 22.7388 25.1487 23.1018C24.616 23.3695 24.5707 23.4131 24.6405 23.5913C24.8271 24.0683 25.5995 25.6565 25.6448 25.6565C25.6724 25.6565 25.9189 25.5446 26.1926 25.4078C26.7366 25.1359 27.6342 24.8282 28.1466 24.738L28.4726 24.6806V29.0382V33.3957H30.0379H31.6031V29.0478C31.6031 25.1139 31.6164 24.7 31.7427 24.7C32.0393 24.7 32.9621 24.9857 33.7173 25.3112C34.1514 25.4984 34.5155 25.6426 34.5265 25.6317C34.6443 25.5139 35.511 23.5078 35.4795 23.4258C35.3648 23.1267 33.2605 22.3594 31.9573 22.1414C30.9514 21.9732 29.04 21.9757 28.0975 22.1464ZM54.1248 22.168C53.4406 22.3889 53.1112 22.5782 52.6329 23.0256L52.2118 23.4195V22.7989V22.1783H50.69H49.1683V27.787V33.3957H50.7291H52.29L52.316 29.7652L52.3422 26.1348L52.5899 25.6304C52.9329 24.9317 53.3179 24.6866 54.1563 24.6328C55.2507 24.5625 55.8922 25.011 56.1184 26.0044C56.1711 26.2357 56.2084 27.827 56.2097 29.8957L56.2118 33.3957H57.7734H59.3351L59.3604 29.7217L59.3857 26.0478L59.6031 25.6137C59.7408 25.3385 59.9586 25.0837 60.1975 24.918C60.5502 24.6734 60.6266 24.6565 61.3778 24.6565C62.1129 24.6565 62.2124 24.6773 62.5508 24.9012C62.8069 25.0707 62.9852 25.2846 63.1306 25.5969L63.3405 26.0478L63.3413 29.7217L63.3422 33.3957H64.9114H66.4806L66.4534 29.287C66.427 25.2967 66.4206 25.1616 66.2311 24.5996C65.6877 22.9879 64.4347 22.1102 62.5596 22.0274C61.0789 21.962 60.0256 22.2978 59.1538 23.1133L58.7275 23.5121L58.2956 23.0779C57.5466 22.3249 56.6723 22.0041 55.3857 22.0101C54.883 22.0124 54.432 22.0689 54.1248 22.168ZM1.05239 22.2363C1.02047 22.2681 0.994385 24.792 0.994385 27.845V33.3957L4.49438 33.3926C8.20308 33.3894 8.80178 33.341 9.79847 32.9638C10.4245 32.7269 11.2132 32.0231 11.455 31.4854C11.713 30.9117 11.7147 29.7618 11.4584 29.2064C11.1996 28.6457 10.6432 28.068 10.1247 27.8218C9.88569 27.7084 9.69004 27.5931 9.69004 27.5657C9.69004 27.5384 9.86412 27.3934 10.0768 27.2435C10.8349 26.709 11.259 25.6645 11.0896 24.7485C10.8194 23.2867 9.65473 22.4677 7.5596 22.2664C6.57856 22.172 1.14169 22.1469 1.05239 22.2363ZM36.4086 26.113C36.4396 29.5422 36.4638 30.1149 36.597 30.5696C36.9769 31.8661 37.6112 32.6975 38.5859 33.1765C40.1573 33.9489 42.2258 33.6868 43.4268 32.5633L43.864 32.1544V32.7751V33.3957H45.3863H46.9087L46.8863 27.8087L46.864 22.2217L45.3205 22.198L43.777 22.1743V25.4764C43.777 28.9788 43.7367 29.4374 43.374 30.0685C42.9567 30.7944 42.0188 31.171 41.105 30.9792C40.47 30.8461 40.069 30.5255 39.7882 29.9267L39.5596 29.4391L39.5326 25.8087L39.5057 22.1783H37.9394H36.3732L36.4086 26.113ZM68.2118 23.3916V24.607L69.1031 24.6317L69.9944 24.6565L70.0172 27.8087L70.04 30.9609H69.1259H68.2118V32.1783V33.3957H71.6055H74.9993L74.9751 32.2L74.9509 31.0044L74.0596 30.9796L73.1683 30.9548V27.7839V24.613H74.0838H74.9993L74.9751 23.4174L74.9509 22.2217L71.5813 22.199L68.2118 22.1763V23.3916ZM7.31421 24.642C8.16456 25.0818 8.16386 26.0478 7.31282 26.5025C7.08752 26.623 6.77865 26.6501 5.60308 26.653L4.1683 26.6565L4.14351 25.6618C4.12995 25.1148 4.14056 24.6104 4.16725 24.541C4.23925 24.3533 6.9223 24.4394 7.31421 24.642ZM19.3727 24.707C19.5676 24.7611 19.8652 24.9576 20.0844 25.1767C20.596 25.6884 20.7335 26.1801 20.7335 27.4984V28.5261H18.5596H16.3857V27.4984C16.3857 26.1898 16.5243 25.6872 17.0227 25.1888C17.2233 24.9882 17.524 24.7806 17.6909 24.7275C18.0893 24.6006 18.9518 24.5901 19.3727 24.707ZM7.80865 28.9938C8.24438 29.1759 8.47265 29.5206 8.47265 29.9967C8.47265 30.4948 8.30082 30.7549 7.83065 30.9684C7.52126 31.1089 7.24552 31.1312 5.79873 31.1329L4.12482 31.1348V30.0044V28.8739H5.82325C7.06995 28.8739 7.59804 28.9058 7.80865 28.9938ZM31.59 36.9017C30.7623 37.1369 30.4394 37.5428 30.4361 38.3522C30.4326 39.2411 30.759 39.5446 32.2987 40.0835C33.608 40.5417 33.8203 40.7498 33.7515 41.5084C33.6822 42.2724 33.5342 42.3881 32.579 42.4248C32.0913 42.4436 31.6064 42.4041 31.2207 42.3144C30.8909 42.2377 30.6128 42.1854 30.6028 42.1983C30.5928 42.2112 30.5613 42.344 30.533 42.4934L30.4813 42.765L31.0205 42.8812C31.7036 43.0284 33.1156 43.0344 33.5235 42.8918C34.6759 42.4892 34.82 40.6049 33.7477 39.9622C33.5486 39.8428 32.9661 39.605 32.4533 39.4336C31.7427 39.1961 31.4685 39.0598 31.3011 38.8609C31.0566 38.5703 31.0406 38.4587 31.1748 37.9757C31.3141 37.4737 31.6594 37.3587 32.8205 37.4273C33.3226 37.4571 33.8118 37.4914 33.9074 37.5037C34.0445 37.5213 34.0869 37.4686 34.1077 37.2553C34.1315 37.011 34.1059 36.9788 33.8468 36.9262C33.2278 36.8007 31.9926 36.7872 31.59 36.9017ZM1.05239 36.9319C1.02047 36.9637 0.994385 38.3333 0.994385 39.9754V42.9609H1.34221H1.69004V39.9174V36.8739H1.40021C1.24073 36.8739 1.08421 36.9 1.05239 36.9319ZM6.64656 39.9174V42.9609H6.94978H7.25291L7.27586 40.0979L7.29873 37.235L8.59299 40.0979L9.88725 42.9609H10.3973H10.9074V39.9174V36.8739H10.6478H10.3881L10.3652 39.6744L10.3422 42.4747L9.08786 39.6744L7.8336 36.8739H7.24004H6.64656V39.9174ZM15.0286 37.0261C15.1528 37.4372 16.6466 42.8732 16.6466 42.9139C16.6466 42.9397 16.8799 42.9609 17.1649 42.9609H17.6833L17.7819 42.5913C17.8362 42.3881 18.2094 41.0392 18.6114 39.594C19.0133 38.1487 19.3422 36.9455 19.3422 36.9201C19.3422 36.8947 19.2079 36.8739 19.0437 36.8739C18.8341 36.8739 18.7322 36.9192 18.7015 37.0261C18.6774 37.1097 18.3581 38.3131 17.9919 39.7C17.1735 42.8002 17.2186 42.6769 17.0868 42.1783C17.0299 41.9631 16.6868 40.6816 16.3243 39.3304L15.6651 36.8739H15.3239C15.0393 36.8739 14.9903 36.8992 15.0286 37.0261ZM23.4292 39.9153V42.9609H24.9999H26.5706L26.5433 42.6783L26.5161 42.3957L25.2746 42.3715L24.033 42.3474L24.0572 41.1541L24.0813 39.9609L24.9509 39.9174C25.8198 39.8739 25.8205 39.8737 25.8477 39.6379L25.8749 39.4018L24.9781 39.3771L24.0813 39.3522L24.0566 38.4174L24.032 37.4826H25.2144H26.3967L26.3694 37.2L26.3422 36.9174L24.8857 36.8936L23.4292 36.8697V39.9153ZM38.0089 36.9319C37.977 36.9637 37.9509 37.1007 37.9509 37.2363V37.4826H38.69H39.4292V40.2217V42.9609H39.7335H40.0379V40.2217V37.4826H40.777H41.5161V37.1783V36.8739H39.7915C38.8429 36.8739 38.0407 36.9 38.0089 36.9319ZM45.6522 36.9784C45.6326 37.0405 45.5142 38.2457 45.3889 39.6565C45.2636 41.0674 45.1387 42.3881 45.1113 42.5913L45.0616 42.9609H45.3758C45.6437 42.9609 45.69 42.932 45.6902 42.7652C45.6902 42.6577 45.7876 41.5717 45.9066 40.3522C46.0255 39.1326 46.1233 37.9607 46.1239 37.7478C46.1244 37.5274 46.1568 37.3964 46.1991 37.4435C46.2399 37.4889 46.5784 38.749 46.9513 40.2435L47.6293 42.9609H48.0476C48.4578 42.9609 48.4676 42.9545 48.5519 42.6348C48.5993 42.4555 48.8949 41.2717 49.209 40.0044C49.5231 38.737 49.8096 37.6287 49.8457 37.5415C49.8828 37.4517 50.0206 38.591 50.1637 40.1719L50.416 42.9609H50.7473H51.0786L51.0279 42.4609C50.9999 42.1858 50.8733 40.8261 50.7466 39.4391L50.5161 36.9174H49.952H49.3879L48.7391 39.5755L48.0904 42.2335L47.4299 39.5755L46.7694 36.9174L46.2286 36.8915C45.8432 36.8731 45.6776 36.898 45.6522 36.9784ZM55.69 39.9153V42.9609H57.2553H58.8205V42.6565V42.3522H57.5596H56.2987V41.1378V39.9235L57.19 39.8987L58.0813 39.8739L58.1086 39.6379L58.1358 39.4018L57.239 39.3771L56.3422 39.3522L56.3175 38.4174L56.2928 37.4826H57.4753H58.6576L58.6303 37.2L58.6031 36.9174L57.1466 36.8936L55.69 36.8697V39.9153ZM63.1683 39.9174V42.9609H63.4771H63.786L63.7597 40.1347C63.7453 38.5804 63.7559 37.3086 63.7831 37.3086C63.8104 37.3087 64.4039 38.5707 65.102 40.1131L66.3714 42.9174L66.9003 42.9433L67.4292 42.9691V39.9216V36.8739H67.1695H66.9098L66.8869 39.6985L66.864 42.5232L65.6538 39.8072C64.9882 38.3135 64.4062 37.0424 64.3605 36.9826C64.3093 36.9157 64.0642 36.8739 63.7229 36.8739H63.1683V39.9174ZM71.4292 37.173V37.4756L72.1466 37.5009L72.864 37.5261L72.8869 40.2435L72.9099 42.9609H73.213H73.5161V40.2217V37.4826H74.2607H75.0054L74.9781 37.2L74.9509 36.9174L73.19 36.8938L71.4292 36.8704V37.173Z" fill="white"/>
</svg>
