<svg width="20" height="20" viewBox="0 0 20 20" fill="none" xmlns="http://www.w3.org/2000/svg">
<path d="M10.3333 6.87579C8.61299 6.87579 7.20908 8.2797 7.20908 10C7.20908 11.7203 8.61299 13.1242 10.3333 13.1242C12.0536 13.1242 13.4575 11.7203 13.4575 10C13.4575 8.2797 12.0536 6.87579 10.3333 6.87579ZM19.7036 10C19.7036 8.70626 19.7153 7.42423 19.6427 6.13283C19.57 4.63283 19.2278 3.30158 18.131 2.2047C17.0317 1.10548 15.7028 0.765639 14.2028 0.692982C12.9091 0.620326 11.6271 0.632045 10.3356 0.632045C9.04189 0.632045 7.75986 0.620326 6.46846 0.692982C4.96846 0.765639 3.63721 1.10783 2.54033 2.2047C1.44111 3.30392 1.10127 4.63283 1.02861 6.13283C0.955958 7.42658 0.967677 8.70861 0.967677 10C0.967677 11.2914 0.955958 12.5758 1.02861 13.8672C1.10127 15.3672 1.44346 16.6985 2.54033 17.7953C3.63955 18.8945 4.96846 19.2344 6.46846 19.307C7.76221 19.3797 9.04424 19.368 10.3356 19.368C11.6294 19.368 12.9114 19.3797 14.2028 19.307C15.7028 19.2344 17.0341 18.8922 18.131 17.7953C19.2302 16.6961 19.57 15.3672 19.6427 13.8672C19.7177 12.5758 19.7036 11.2938 19.7036 10ZM10.3333 14.807C7.67315 14.807 5.52627 12.6602 5.52627 10C5.52627 7.33986 7.67315 5.19298 10.3333 5.19298C12.9935 5.19298 15.1403 7.33986 15.1403 10C15.1403 12.6602 12.9935 14.807 10.3333 14.807ZM15.3372 6.11876C14.7161 6.11876 14.2146 5.6172 14.2146 4.99611C14.2146 4.37501 14.7161 3.87345 15.3372 3.87345C15.9583 3.87345 16.4599 4.37501 16.4599 4.99611C16.4601 5.14359 16.4311 5.28966 16.3748 5.42595C16.3184 5.56224 16.2357 5.68607 16.1315 5.79036C16.0272 5.89464 15.9033 5.97733 15.767 6.03368C15.6308 6.09004 15.4847 6.11895 15.3372 6.11876Z" fill="white"/>
</svg>
