<svg width="18" height="19" viewBox="0 0 18 19" fill="none" xmlns="http://www.w3.org/2000/svg">
<path d="M3.62 8.78512C5.06 11.6151 7.38 13.9251 10.21 15.3751L12.41 13.1751C12.68 12.9051 13.08 12.8151 13.43 12.9351C14.55 13.3051 15.76 13.5051 17 13.5051C17.55 13.5051 18 13.9551 18 14.5051V17.9951C18 18.5451 17.55 18.9951 17 18.9951C7.61 18.9951 0 11.3851 0 1.99512C0 1.44512 0.45 0.995117 1 0.995117H4.5C5.05 0.995117 5.5 1.44512 5.5 1.99512C5.5 3.24512 5.7 4.44512 6.07 5.56512C6.18 5.91512 6.1 6.30512 5.82 6.58512L3.62 8.78512Z" fill="white"/>
</svg>
