<svg width="25" height="24" viewBox="0 0 25 24" fill="none" xmlns="http://www.w3.org/2000/svg">
<mask id="mask0_497_1481" style="mask-type:alpha" maskUnits="userSpaceOnUse" x="0" y="0" width="25" height="24">
<path d="M0.333252 0H24.3333V24H0.333252V0Z" fill="white"/>
</mask>
<g mask="url(#mask0_497_1481)">
<path fill-rule="evenodd" clip-rule="evenodd" d="M24.3333 12C24.3333 18.627 18.9603 24 12.3333 24C5.70625 24 0.333252 18.627 0.333252 12C0.333252 5.373 5.70625 0 12.3333 0C18.9603 0 24.3333 5.373 24.3333 12ZM12.7633 8.859C11.5963 9.344 9.26325 10.349 5.76525 11.873C5.19725 12.099 4.89925 12.32 4.87225 12.536C4.82625 12.902 5.28425 13.046 5.90625 13.241C5.99125 13.268 6.07925 13.295 6.16925 13.325C6.78225 13.524 7.60625 13.757 8.03425 13.766C8.42325 13.774 8.85725 13.614 9.33625 13.286C12.6043 11.079 14.2913 9.964 14.3973 9.94C14.4723 9.923 14.5763 9.901 14.6463 9.964C14.7163 10.026 14.7093 10.144 14.7023 10.176C14.6563 10.369 12.8623 12.038 11.9323 12.902C11.6423 13.171 11.4373 13.362 11.3953 13.406C11.3013 13.503 11.2053 13.596 11.1133 13.685C10.5433 14.233 10.1173 14.645 11.1373 15.317C11.6273 15.64 12.0193 15.907 12.4103 16.173C12.8373 16.464 13.2633 16.754 13.8153 17.116C13.9553 17.208 14.0893 17.303 14.2203 17.396C14.7173 17.751 15.1643 18.069 15.7163 18.019C16.0363 17.989 16.3683 17.688 16.5363 16.789C16.9333 14.663 17.7153 10.059 17.8963 8.161C17.9073 8.00341 17.9006 7.84509 17.8763 7.689C17.8617 7.56293 17.8003 7.44693 17.7043 7.364C17.5613 7.247 17.3393 7.222 17.2393 7.224C16.7883 7.232 16.0963 7.473 12.7633 8.859Z" fill="white"/>
</g>
</svg>
