<svg width="25" height="18" viewBox="0 0 25 18" fill="none" xmlns="http://www.w3.org/2000/svg">
<path d="M23.8333 3.50708C23.6974 3.02231 23.4327 2.58342 23.0673 2.23708C22.6916 1.88008 22.2311 1.62471 21.7293 1.49508C19.8513 1.00008 12.3273 1.00008 12.3273 1.00008C9.19065 0.964389 6.05475 1.12135 2.93732 1.47008C2.43551 1.60929 1.97588 1.87036 1.59932 2.23008C1.22932 2.58608 0.96132 3.02508 0.82132 3.50608C0.485013 5.31782 0.321612 7.15742 0.33332 9.00008C0.32132 10.8411 0.48432 12.6801 0.82132 14.4941C0.95832 14.9731 1.22532 15.4101 1.59632 15.7631C1.96732 16.1161 2.42932 16.3711 2.93732 16.5061C4.84032 17.0001 12.3273 17.0001 12.3273 17.0001C15.468 17.0358 18.6079 16.8789 21.7293 16.5301C22.2311 16.4004 22.6916 16.1451 23.0673 15.7881C23.4326 15.4418 23.697 15.0029 23.8323 14.5181C24.1774 12.707 24.3452 10.8667 24.3333 9.02308C24.3593 7.17168 24.1917 5.32264 23.8333 3.50608V3.50708ZM9.93532 12.4241V5.57708L16.1953 9.00108L9.93532 12.4241Z" fill="white"/>
</svg>
