<svg width="25" height="24" viewBox="0 0 25 24" fill="none" xmlns="http://www.w3.org/2000/svg">
<path fill-rule="evenodd" clip-rule="evenodd" d="M17.7483 14.382C17.4503 14.233 15.9893 13.515 15.7173 13.415C15.4453 13.316 15.2473 13.267 15.0483 13.565C14.8503 13.861 14.2813 14.531 14.1083 14.729C13.9343 14.928 13.7613 14.952 13.4643 14.804C13.1673 14.654 12.2093 14.341 11.0743 13.329C10.1913 12.541 9.59431 11.568 9.42131 11.27C9.24831 10.973 9.40231 10.812 9.55131 10.664C9.68531 10.531 9.84831 10.317 9.99731 10.144C10.1463 9.97004 10.1953 9.84604 10.2943 9.64704C10.3943 9.44904 10.3443 9.27604 10.2693 9.12704C10.1953 8.97804 9.60131 7.51504 9.35331 6.92004C9.11231 6.34104 8.86731 6.42004 8.68531 6.41004C8.51131 6.40204 8.31331 6.40004 8.11531 6.40004C7.91731 6.40004 7.59531 6.47404 7.32331 6.77204C7.05031 7.06904 6.28331 7.78804 6.28331 9.25104C6.28331 10.713 7.34731 12.126 7.49631 12.325C7.64531 12.523 9.59131 15.525 12.5723 16.812C13.2823 17.118 13.8353 17.301 14.2663 17.437C14.9783 17.664 15.6263 17.632 16.1383 17.555C16.7083 17.47 17.8963 16.836 18.1443 16.142C18.3913 15.448 18.3913 14.853 18.3173 14.729C18.2433 14.605 18.0453 14.531 17.7473 14.382H17.7483ZM12.3263 21.785H12.3223C10.5517 21.7854 8.81368 21.3094 7.29031 20.407L6.93031 20.193L3.18831 21.175L4.18731 17.527L3.95231 17.153C2.96245 15.5774 2.43861 13.7538 2.44131 11.893C2.44331 6.44304 6.87731 2.00904 12.3303 2.00904C14.9703 2.00904 17.4523 3.03904 19.3183 4.90704C20.2387 5.82362 20.9682 6.91361 21.4646 8.11394C21.961 9.31427 22.2145 10.6011 22.2103 11.9C22.2083 17.35 17.7743 21.785 12.3263 21.785ZM20.7383 3.48804C19.6365 2.37896 18.3255 1.49958 16.8814 0.900841C15.4373 0.302105 13.8886 -0.00407625 12.3253 4.09775e-05C5.77131 4.09775e-05 0.435313 5.33504 0.433313 11.892C0.430276 13.9788 0.977687 16.0294 2.02031 17.837L0.333313 24L6.63731 22.346C8.38119 23.2962 10.3354 23.794 12.3213 23.794H12.3263C18.8803 23.794 24.2163 18.459 24.2183 11.901C24.2231 10.3383 23.9181 8.79014 23.3207 7.34607C22.7234 5.90201 21.8457 4.59071 20.7383 3.48804Z" fill="white"/>
</svg>
