<svg width="76" height="44" viewBox="0 0 76 44" fill="none" xmlns="http://www.w3.org/2000/svg">
<rect width="76" height="42.9953" transform="translate(0 0.502365)" fill="white"/>
<path d="M53.3272 6.89153L73.776 18.7975C74.455 19.1928 75.3247 18.9884 75.7566 18.3319C75.9154 18.0905 76 17.8078 76 17.5188V17.2432C76 16.4128 75.5708 15.6415 74.8653 15.2037L53.4457 1.91238C51.9994 1.01492 50.2399 0.773994 48.6056 1.2496L1.40979 14.984C0.574466 15.2271 0 15.9926 0 16.8625V16.9072C0 17.2602 0.103383 17.6055 0.297385 17.9004C0.724936 18.5504 1.52046 18.8539 2.27229 18.6537L48.7649 6.27857C50.3067 5.86819 51.9484 6.08876 53.3272 6.89153Z" fill="#F2C231"/>
<path fill-rule="evenodd" clip-rule="evenodd" d="M17.0147 22.6748C15.4625 23.0561 14.2354 24.0798 13.6987 25.4413C13.3037 26.4436 13.2553 27.0005 13.2553 30.5465V33.898H14.8206H16.3858V32.6806V31.4632H18.5597H20.7336V32.6806V33.898H22.3498H23.966L23.9276 30.3545C23.8855 26.4684 23.8598 26.2431 23.3308 25.1349C22.9772 24.3939 22.0932 23.493 21.3548 23.1211C20.1419 22.5102 18.4098 22.332 17.0147 22.6748ZM28.0976 22.6487C27.195 22.8122 25.8713 23.2412 25.1488 23.6042C24.6161 23.8718 24.5708 23.9155 24.6406 24.0937C24.8272 24.5706 25.5996 26.1589 25.6449 26.1589C25.6725 26.1589 25.919 26.047 26.1926 25.9102C26.7367 25.6383 27.6343 25.3305 28.1467 25.2404L28.4727 25.183V29.5405V33.898H30.038H31.6032V29.5502C31.6032 25.6163 31.6165 25.2024 31.7428 25.2024C32.0394 25.2024 32.9622 25.488 33.7174 25.8136C34.1515 26.0008 34.5156 26.145 34.5266 26.134C34.6444 26.0163 35.5111 24.0102 35.4796 23.9282C35.3649 23.6291 33.2606 22.8618 31.9574 22.6438C30.9515 22.4756 29.0401 22.478 28.0976 22.6487ZM54.1249 22.6704C53.4407 22.8912 53.1113 23.0805 52.633 23.5279L52.2119 23.9218V23.3012V22.6806H50.6901H49.1684V28.2893V33.898H50.7292H52.29L52.3161 30.2676L52.3423 26.6372L52.59 26.1327C52.933 25.4341 53.318 25.189 54.1564 25.1352C55.2508 25.0649 55.8923 25.5133 56.1185 26.5067C56.1712 26.738 56.2085 28.3294 56.2098 30.398L56.2119 33.898H57.7735H59.3352L59.3605 30.2241L59.3858 26.5502L59.6032 26.116C59.7409 25.8409 59.9587 25.586 60.1976 25.4204C60.5503 25.1758 60.6267 25.1589 61.3779 25.1589C62.113 25.1589 62.2125 25.1797 62.5509 25.4036C62.807 25.5731 62.9853 25.787 63.1306 26.0992L63.3406 26.5502L63.3414 30.2241L63.3423 33.898H64.9115H66.4807L66.4535 29.7893C66.4271 25.7991 66.4206 25.6639 66.2312 25.1019C65.6878 23.4903 64.4348 22.6125 62.5597 22.5298C61.079 22.4644 60.0257 22.8002 59.1539 23.6157L58.7276 24.0145L58.2957 23.5803C57.5466 22.8272 56.6724 22.5065 55.3858 22.5125C54.8831 22.5148 54.4321 22.5712 54.1249 22.6704ZM1.05248 22.7386C1.02056 22.7705 0.994476 25.2944 0.994476 28.3473V33.898L4.49448 33.895C8.20317 33.8918 8.80187 33.8433 9.79856 33.4662C10.4246 33.2292 11.2133 32.5254 11.4551 31.9878C11.7131 31.4141 11.7148 30.2642 11.4585 29.7088C11.1997 29.148 10.6433 28.5704 10.1248 28.3242C9.88578 28.2107 9.69013 28.0955 9.69013 28.0681C9.69013 28.0408 9.86422 27.8958 10.0769 27.7458C10.835 27.2114 11.2591 26.1669 11.0897 25.2509C10.8195 23.7891 9.65482 22.9701 7.55969 22.7687C6.57865 22.6744 1.14178 22.6492 1.05248 22.7386ZM36.4087 26.6154C36.4397 30.0445 36.4639 30.6172 36.5971 31.0719C36.977 32.3685 37.6113 33.1999 38.586 33.6789C40.1573 34.4512 42.2259 34.1892 43.4269 33.0657L43.864 32.6568V33.2774V33.898H45.3864H46.9088L46.8864 28.3111L46.864 22.7241L45.3206 22.7004L43.7771 22.6766V25.9787C43.7771 29.4812 43.7368 29.9398 43.3741 30.5709C42.9568 31.2968 42.0189 31.6733 41.1051 31.4816C40.4701 31.3485 40.0691 31.0278 39.7883 30.4291L39.5597 29.9415L39.5327 26.3111L39.5058 22.6806H37.9395H36.3733L36.4087 26.6154ZM68.2119 23.8939V25.1093L69.1032 25.1341L69.9945 25.1589L70.0173 28.3111L70.0401 31.4632H69.126H68.2119V32.6806V33.898H71.6056H74.9994L74.9752 32.7024L74.951 31.5067L74.0597 31.4819L73.1684 31.4572V28.2863V25.1154H74.0839H74.9994L74.9752 23.9198L74.951 22.7241L71.5814 22.7013L68.2119 22.6786V23.8939ZM7.3143 25.1444C8.16465 25.5842 8.16395 26.5502 7.31291 27.0049C7.08761 27.1253 6.77874 27.1525 5.60317 27.1553L4.16839 27.1589L4.14361 26.1642C4.13004 25.6172 4.14065 25.1128 4.16735 25.0434C4.23935 24.8557 6.92239 24.9418 7.3143 25.1444ZM19.3728 25.2094C19.5677 25.2635 19.8653 25.4599 20.0845 25.6791C20.5961 26.1907 20.7336 26.6825 20.7336 28.0008V29.0285H18.5597H16.3858V28.0008C16.3858 26.6922 16.5244 26.1896 17.0228 25.6912C17.2234 25.4905 17.5241 25.283 17.691 25.2299C18.0893 25.103 18.9519 25.0925 19.3728 25.2094ZM7.80874 29.4962C8.24448 29.6783 8.47274 30.023 8.47274 30.4991C8.47274 30.9972 8.30091 31.2572 7.83074 31.4707C7.52135 31.6112 7.24561 31.6336 5.79882 31.6352L4.12491 31.6372V30.5067V29.3763H5.82335C7.07004 29.3763 7.59813 29.4082 7.80874 29.4962ZM31.59 37.404C30.7624 37.6392 30.4395 38.0452 30.4362 38.8545C30.4326 39.7435 30.7591 40.047 32.2988 40.5858C33.6081 41.044 33.8204 41.2522 33.7516 42.0107C33.6823 42.7747 33.5343 42.8905 32.5791 42.9272C32.0913 42.9459 31.6065 42.9065 31.2208 42.8167C30.891 42.74 30.6129 42.6878 30.6029 42.7006C30.5929 42.7136 30.5614 42.8464 30.5331 42.9958L30.4814 43.2674L31.0206 43.3836C31.7037 43.5307 33.1157 43.5368 33.5236 43.3942C34.676 42.9916 34.8201 41.1072 33.7478 40.4645C33.5487 40.3452 32.9662 40.1073 32.4533 39.9359C31.7428 39.6985 31.4686 39.5622 31.3012 39.3632C31.0567 39.0726 31.0407 38.9611 31.1749 38.478C31.3142 37.9761 31.6595 37.8611 32.8206 37.9297C33.3227 37.9594 33.8119 37.9938 33.9075 38.006C34.0446 38.0237 34.087 37.971 34.1078 37.7577C34.1316 37.5133 34.106 37.4812 33.8469 37.4285C33.2279 37.3031 31.9927 37.2896 31.59 37.404ZM1.05248 37.4343C1.02056 37.4661 0.994476 38.8357 0.994476 40.4778V43.4632H1.3423H1.69013V40.4198V37.3763H1.4003C1.24082 37.3763 1.0843 37.4024 1.05248 37.4343ZM6.64665 40.4198V43.4632H6.94987H7.253L7.27595 40.6003L7.29882 37.7373L8.59309 40.6003L9.88735 43.4632H10.3974H10.9075V40.4198V37.3763H10.6479H10.3882L10.3653 40.1767L10.3423 42.9771L9.08795 40.1767L7.83369 37.3763H7.24013H6.64665V40.4198ZM15.0287 37.5285C15.1529 37.9396 16.6467 43.3756 16.6467 43.4163C16.6467 43.4421 16.88 43.4632 17.165 43.4632H17.6834L17.782 43.0937C17.8363 42.8905 18.2095 41.5416 18.6115 40.0964C19.0134 38.6511 19.3423 37.4479 19.3423 37.4225C19.3423 37.3971 19.208 37.3763 19.0438 37.3763C18.8342 37.3763 18.7323 37.4216 18.7016 37.5285C18.6775 37.6121 18.3582 38.8154 17.992 40.2024C17.1736 43.3025 17.2186 43.1792 17.0869 42.6806C17.03 42.4654 16.6869 41.1839 16.3244 39.8328L15.6652 37.3763H15.324C15.0394 37.3763 14.9904 37.4016 15.0287 37.5285ZM23.4293 40.4177V43.4632H25H26.5707L26.5434 43.1806L26.5162 42.898L25.2746 42.8738L24.0331 42.8498L24.0573 41.6565L24.0814 40.4632L24.951 40.4198C25.8199 40.3763 25.8206 40.3761 25.8478 40.1403L25.875 39.9042L24.9782 39.8794L24.0814 39.8545L24.0567 38.9198L24.032 37.985H25.2145H26.3968L26.3695 37.7024L26.3423 37.4198L24.8858 37.3959L23.4293 37.3721V40.4177ZM38.009 37.4343C37.9771 37.4661 37.951 37.6031 37.951 37.7386V37.985H38.6901H39.4293V40.7241V43.4632H39.7336H40.038V40.7241V37.985H40.7771H41.5162V37.6806V37.3763H39.7916C38.843 37.3763 38.0408 37.4024 38.009 37.4343ZM45.6523 37.4808C45.6327 37.5429 45.5143 38.748 45.389 40.1589C45.2637 41.5698 45.1388 42.8905 45.1114 43.0937L45.0617 43.4632H45.3759C45.6438 43.4632 45.6901 43.4344 45.6903 43.2676C45.6903 43.16 45.7877 42.0741 45.9067 40.8545C46.0256 39.635 46.1233 38.4631 46.124 38.2502C46.1245 38.0298 46.1569 37.8988 46.1992 37.9458C46.24 37.9912 46.5785 39.2513 46.9513 40.7459L47.6293 43.4632H48.0477C48.4579 43.4632 48.4677 43.4569 48.552 43.1372C48.5993 42.9579 48.895 41.7741 49.2091 40.5067C49.5232 39.2393 49.8097 38.1311 49.8458 38.0439C49.8829 37.954 50.0207 39.0933 50.1638 40.6743L50.4161 43.4632H50.7474H51.0787L51.028 42.9632C51 42.6882 50.8734 41.3285 50.7467 39.9415L50.5162 37.4198H49.952H49.388L48.7392 40.0779L48.0905 42.7359L47.43 40.0779L46.7695 37.4198L46.2286 37.3939C45.8433 37.3754 45.6777 37.4004 45.6523 37.4808ZM55.6901 40.4177V43.4632H57.2553H58.8206V43.1589V42.8545H57.5597H56.2988V41.6402V40.4259L57.1901 40.4011L58.0814 40.3763L58.1087 40.1403L58.1359 39.9042L57.2391 39.8794L56.3423 39.8545L56.3176 38.9198L56.2929 37.985H57.4753H58.6577L58.6304 37.7024L58.6032 37.4198L57.1467 37.3959L55.6901 37.3721V40.4177ZM63.1684 40.4198V43.4632H63.4772H63.786L63.7598 40.6371C63.7454 39.0827 63.756 37.811 63.7832 37.811C63.8105 37.8111 64.404 39.0731 65.1021 40.6154L66.3715 43.4198L66.9004 43.4457L67.4293 43.4715V40.4239V37.3763H67.1696H66.9099L66.887 40.2009L66.864 43.0256L65.6539 40.3096C64.9883 38.8158 64.4063 37.5448 64.3606 37.485C64.3094 37.4181 64.0643 37.3763 63.723 37.3763H63.1684V40.4198ZM71.4293 37.6753V37.9779L72.1467 38.0032L72.864 38.0285L72.887 40.7459L72.91 43.4632H73.2131H73.5162V40.7241V37.985H74.2608H75.0055L74.9782 37.7024L74.951 37.4198L73.1901 37.3962L71.4293 37.3727V37.6753Z" fill="#1C4857"/>
</svg>
