<svg width="17" height="21" viewBox="0 0 17 21" fill="none" xmlns="http://www.w3.org/2000/svg">
<path fill-rule="evenodd" clip-rule="evenodd" d="M3.5 2.25H13.5C14.1904 2.25 14.75 2.80964 14.75 3.5V17.5C14.75 18.1904 14.1904 18.75 13.5 18.75H3.5C2.80964 18.75 2.25 18.1904 2.25 17.5V3.5C2.25 2.80964 2.80964 2.25 3.5 2.25ZM0.5 3.5C0.5 1.84315 1.84315 0.5 3.5 0.5H13.5C15.1569 0.5 16.5 1.84315 16.5 3.5V17.5C16.5 19.1569 15.1569 20.5 13.5 20.5H3.5C1.84315 20.5 0.5 19.1569 0.5 17.5V3.5ZM5.5 5.5C4.94772 5.5 4.5 5.94772 4.5 6.5C4.5 7.05228 4.94772 7.5 5.5 7.5H11.5C12.0523 7.5 12.5 7.05228 12.5 6.5C12.5 5.94772 12.0523 5.5 11.5 5.5H5.5ZM4.5 10.5C4.5 9.94771 4.94772 9.5 5.5 9.5H10.5C11.0523 9.5 11.5 9.94771 11.5 10.5C11.5 11.0523 11.0523 11.5 10.5 11.5H5.5C4.94772 11.5 4.5 11.0523 4.5 10.5ZM5.5 13.5C4.94772 13.5 4.5 13.9477 4.5 14.5C4.5 15.0523 4.94772 15.5 5.5 15.5H7.5C8.05228 15.5 8.5 15.0523 8.5 14.5C8.5 13.9477 8.05228 13.5 7.5 13.5H5.5Z" fill="#1D1D1D"/>
</svg>
