<svg width="101" height="88" viewBox="0 0 101 88" fill="none" xmlns="http://www.w3.org/2000/svg">
<g clip-path="url(#clip0_456_4938)">
<path fill-rule="evenodd" clip-rule="evenodd" d="M70 14.0001C86.5603 14.0001 100 27.4429 100 44.0071C100 60.5712 86.5603 74.0001 70 74.0001C53.4327 73.9932 40 60.5712 40 44.0071C40 27.429 53.4327 14.0001 70 14.0001Z" fill="#144E5E"/>
<path d="M42 58.3991C28.007 37.5706 11.991 33.7486 11.27 33.5841L7 32.6251V37.0001C7 62.5151 20.7375 79.0001 42 79.0001C62.9335 79.0001 77 62.1231 77 37.0001V32.6251L72.73 33.5841C72.009 33.7486 55.993 37.5706 42 58.3991Z" fill="#F2C231"/>
<path d="M39.4587 15.1846C33.1622 21.8276 29.5187 28.3971 27.4082 33.7171C32.0597 36.4611 37.1417 40.5176 41.9647 46.6146C46.7387 40.4546 51.8557 36.3771 56.5597 33.6331C54.4422 28.3306 50.7987 21.7926 44.5372 15.1846L41.9997 12.5001L39.4587 15.1846Z" fill="#F2C231"/>
</g>
<defs>
<clipPath id="clip0_456_4938">
<rect width="100" height="86.49" fill="white" transform="translate(0.5 0.755005)"/>
</clipPath>
</defs>
</svg>
