<svg width="113" height="94" viewBox="0 0 113 94" fill="none" xmlns="http://www.w3.org/2000/svg">
<g clip-path="url(#clip0_456_4947)">
<path fill-rule="evenodd" clip-rule="evenodd" d="M82.9931 16.5098C99.5572 16.5098 113 29.9387 113 46.5028C113 63.067 99.5642 76.5098 82.9931 76.5098C66.4289 76.5028 53 63.067 53 46.5028C53 29.9387 66.4289 16.5098 82.9931 16.5098Z" fill="#144E5E"/>
<path d="M42.7719 9.34132C38.5555 9.35773 34.3883 9.69242 30.779 10.1977L32.4524 16.3074C39.3266 14.8998 46.5125 15.3526 53.7313 16.3238L55.011 10.4274C51.2375 9.63663 46.9883 9.32656 42.7719 9.34132ZM28.2688 12.0123C26.579 12.4421 24.9219 12.9523 23.3469 13.5397C22.0016 14.0401 21.1649 15.1147 20.2133 16.5141C19.2618 17.9119 18.2774 19.7002 17.2766 21.7691C15.2586 25.9034 13.1537 31.137 11.226 36.305C9.36716 41.2925 7.68552 46.1815 6.43372 49.9222C7.42958 49.1347 8.66005 48.6261 9.97419 48.6589C11.1111 45.312 12.4925 41.3581 13.9937 37.3386C15.9018 32.2198 17.9985 27.0355 19.9344 23.0651C20.9024 21.0636 21.8376 19.3721 22.6579 18.1794C23.4782 16.9801 24.2821 16.3386 24.3641 16.3058C25.8571 15.7529 27.4157 15.2771 29.0235 14.8751L28.2688 12.0123ZM57.5047 12.8703L56.8649 15.7955C58.7188 16.4485 60.4743 17.2409 62.1149 18.1728C62.5907 18.4386 63.5094 19.4213 64.4446 20.9651C65.3633 22.5073 66.3641 24.5581 67.3485 26.937C69.35 31.6784 71.3516 37.6995 73.1399 43.5894C73.6485 45.2956 74.1571 46.9855 74.6329 48.6261C75.8305 48.7901 76.9461 49.3644 77.8321 50.1847C77.9797 50.3159 78.111 50.4472 78.2422 50.5948C77.5368 48.0847 76.7821 45.4269 75.9618 42.7362C74.1735 36.7808 72.1391 30.6941 70.0719 25.7886C69.0547 23.3276 68.0047 21.1784 66.9711 19.4377C65.9211 17.7052 64.9204 16.3747 63.5915 15.6101C61.6719 14.5208 59.6375 13.6119 57.5047 12.8703ZM52.2219 38.405L31.5008 38.5855L31.4188 38.6019C26.4477 39.1269 22.6579 43.6058 21.9524 49.43C22.9532 49.4792 23.9375 49.5284 24.9055 49.5612C25.529 45.0003 28.4165 41.8995 31.7141 41.5386L51.943 41.3581C54.5024 41.7847 57.2422 44.4097 57.9477 49.3808C58.9157 49.3316 59.9001 49.2987 60.9008 49.2495C60.0969 43.0972 56.5532 39.0776 52.3368 38.4214L52.2219 38.405ZM73.8618 51.5464C69.5141 51.7761 65.3797 52.0058 61.393 52.1862C63.9852 62.1941 63.8704 72.3003 63.854 82.2425C68.6282 81.7831 73.5336 81.2417 78.6196 80.6347C78.718 80.6183 78.9805 80.5198 79.3579 79.798C79.7352 79.0925 80.0961 77.9277 80.3258 76.4839C80.8016 73.5964 80.8508 69.6753 80.4407 65.787C80.0141 61.9151 79.1118 58.0761 77.8649 55.3855C77.2415 54.0401 76.536 52.9902 75.8469 52.3667C75.1414 51.7433 74.5508 51.5136 73.8618 51.5464ZM9.72974 51.612C9.17028 51.6284 8.68302 51.8581 8.10224 52.3995C7.43778 53.0066 6.74216 54.0566 6.13513 55.4019C4.92271 58.1089 4.05646 61.9972 3.62497 65.9347C3.19349 69.8722 3.18692 73.8753 3.56591 76.8448C3.75458 78.3214 4.04989 79.5519 4.36653 80.2901C4.68482 81.0448 4.95224 81.0941 4.76192 81.0612C9.7445 81.898 14.5975 82.505 19.393 82.9315C18.4743 73.3831 18.8188 63.2769 21.3454 52.3503C17.7196 52.1862 13.9445 51.9402 9.97583 51.6284C9.89216 51.6284 9.81013 51.612 9.72974 51.612ZM58.3743 52.3175C46.8243 52.8097 36.2586 52.9901 24.3313 52.498C21.7227 63.4901 21.3946 73.5472 22.379 83.1776C35.143 84.0964 47.579 83.6862 60.9008 82.505C60.9172 72.2347 61.0321 62.0956 58.3743 52.3175Z" fill="#F2C231"/>
</g>
<defs>
<clipPath id="clip0_456_4947">
<rect width="112.37" height="92.09" fill="white" transform="translate(0.314453 0.955078)"/>
</clipPath>
</defs>
</svg>
