<svg width="97" height="88" viewBox="0 0 97 88" fill="none" xmlns="http://www.w3.org/2000/svg">
<g clip-path="url(#clip0_456_5731)">
<path fill-rule="evenodd" clip-rule="evenodd" d="M66.9896 13.9297C83.5626 13.9297 97 27.3624 97 43.9297C97 60.49 83.5557 73.9297 66.9896 73.9297C50.4235 73.9297 37 60.49 37 43.9297C37 27.3624 50.4235 13.9297 66.9896 13.9297Z" fill="#144E5E"/>
<g clip-path="url(#clip1_456_5731)">
<path d="M32 11.9297C14.325 11.9297 0 26.2547 0 43.9297V67.9297C0 72.3422 3.5875 75.9297 8 75.9297H56C60.4125 75.9297 64 72.3422 64 67.9297V43.9297C64 26.2547 49.675 11.9297 32 11.9297ZM48 75.9297C45.7875 75.9297 44 74.1422 44 71.9297V67.9297H20V71.9297C20 74.1422 18.2125 75.9297 16 75.9297C13.7875 75.9297 12 74.1422 12 71.9297V58.9297C12 56.3297 13.4125 54.0672 15.5125 52.8547L18.1375 44.7672C19.075 41.8797 21.7625 39.9297 24.8 39.9297H39.2C42.2375 39.9297 44.925 41.8797 45.8625 44.7672L48.4875 52.8547C50.5875 54.0672 52.0125 56.3297 52.0125 58.9297V71.9297C52.0125 74.1422 50.225 75.9297 48.0125 75.9297H48ZM23.85 46.6172L22.125 51.9297H41.875L40.15 46.6172C40.0125 46.2047 39.6375 45.9297 39.2 45.9297H24.8C24.3625 45.9297 23.9875 46.2047 23.85 46.6172ZM21 62.9297C22.6625 62.9297 24 61.5922 24 59.9297C24 58.2672 22.6625 56.9297 21 56.9297C19.3375 56.9297 18 58.2672 18 59.9297C18 61.5922 19.3375 62.9297 21 62.9297ZM46 59.9297C46 58.2672 44.6625 56.9297 43 56.9297C41.3375 56.9297 40 58.2672 40 59.9297C40 61.5922 41.3375 62.9297 43 62.9297C44.6625 62.9297 46 61.5922 46 59.9297Z" fill="#F2C231"/>
</g>
</g>
<defs>
<clipPath id="clip0_456_5731">
<rect width="96.6" height="86.51" fill="white" transform="translate(0.199219 0.745117)"/>
</clipPath>
<clipPath id="clip1_456_5731">
<rect width="64" height="64" fill="white" transform="translate(0 11.9297)"/>
</clipPath>
</defs>
</svg>
