<svg width="93" height="88" viewBox="0 0 93 88" fill="none" xmlns="http://www.w3.org/2000/svg">
<path fill-rule="evenodd" clip-rule="evenodd" d="M61.9931 13.9297C78.5711 13.9297 92 27.3725 92 43.9366C92 60.5008 78.5711 73.9297 61.9931 73.9297C45.4289 73.9297 32 60.5008 32 43.9366C32.0069 27.3725 45.4289 13.9297 61.9931 13.9297Z" fill="#144E5E"/>
<path fill-rule="evenodd" clip-rule="evenodd" d="M11.48 82.7297L1.12 26.2897L1 25.6597L1.55 25.3497L22.61 13.1997L23.88 12.4497V13.9597V82.5697V83.4497H23.02H12.34H11.62L11.48 82.7297ZM58.16 32.1097L79.6 37.1797L72.47 83.4497H58.54H52.94L58.16 32.1097ZM25.96 4.92969L25.8 83.5497H51.4L57.86 18.3697L25.96 4.92969Z" fill="#F2C231"/>
<path d="M19.6041 78.8259C19.6312 78.6641 19.6454 78.4986 19.6454 78.3304C19.6454 76.4528 17.8937 74.9309 15.7329 74.9309C13.572 74.9309 11.8203 76.453 11.8203 78.3304C11.8203 78.4988 11.8345 78.6641 11.8616 78.8259H19.6041Z" fill="white"/>
<path d="M24.0318 77.9903C24.059 77.7622 24.0732 77.5287 24.0732 77.2915C24.0732 74.6438 22.3215 72.4973 20.1606 72.4973C17.9997 72.4973 16.248 74.6438 16.248 77.2915C16.248 77.5289 16.2622 77.7622 16.2894 77.9903H24.0318Z" fill="white"/>
<path d="M16.0477 80.9297C16.0164 80.7221 16 80.5097 16 80.2936C16 77.8836 18.0148 75.9297 20.5 75.9297C22.9852 75.9297 25 77.8836 25 80.2936C25 80.5097 24.9836 80.7221 24.9523 80.9297H16.0477Z" fill="white"/>
<path d="M20.146 75.4348C18.7769 75.4348 17.5539 76.1157 16.7466 77.1838C16.3354 77.0858 15.8988 77.033 15.4461 77.033C13.0154 77.033 11.0449 78.5551 11.0449 80.4325C11.0449 80.601 11.0608 80.7662 11.0914 80.928H24.5005C24.5311 80.6999 24.547 80.4667 24.547 80.2292C24.5472 77.5813 22.5765 75.4348 20.146 75.4348Z" fill="white"/>
<path d="M16.7492 59.1583C16.7754 58.8156 16.7888 58.4652 16.7888 58.1087C16.7888 54.1321 15.1085 50.9087 13.0361 50.9087C10.9635 50.9087 9.2832 54.1324 9.2832 58.1087C9.2832 58.4652 9.29665 58.8156 9.3228 59.1583H16.7492Z" fill="white"/>
<path d="M20.9973 57.3891C21.0234 56.9058 21.0369 56.4116 21.0369 55.9087C21.0369 50.3008 19.3566 45.7546 17.2842 45.7546C15.2116 45.7546 13.5312 50.3008 13.5312 55.9087C13.5312 56.4116 13.5447 56.9058 13.5709 57.3891H20.9973Z" fill="white"/>
<path d="M19.6216 63.6117C19.5955 63.2689 19.582 62.9186 19.582 62.562C19.582 58.5855 21.2623 55.3621 23.335 55.3621C25.4076 55.3621 27.0876 58.5855 27.0876 62.562C27.0876 62.9186 27.0742 63.2689 27.0481 63.6117H19.6216Z" fill="white"/>
<path d="M13.6168 63.6115C13.5838 63.1282 13.5664 62.634 13.5664 62.1311C13.5664 56.5232 15.6965 51.9771 18.3238 51.9771C20.9513 51.9771 23.0811 56.5232 23.0811 62.1311C23.0811 62.634 23.0637 63.1282 23.0307 63.6115H13.6168Z" fill="white"/>
<path d="M17.2686 51.9771C15.9555 51.9771 14.7824 53.4194 14.008 55.681C13.6137 55.4733 13.195 55.3616 12.7606 55.3616C10.4291 55.3616 8.53906 58.5853 8.53906 62.5615C8.53906 62.9181 8.55422 63.2684 8.5838 63.6112H21.4452C21.4745 63.128 21.4896 62.6337 21.4896 62.1309C21.4899 56.523 19.6001 51.9771 17.2686 51.9771Z" fill="white"/>
<path d="M46.4325 77.639C46.4838 77.3856 46.5105 77.1266 46.5105 76.8631C46.5105 73.9237 43.2024 71.541 39.1214 71.541C35.0407 71.541 31.7324 73.9237 31.7324 76.8631C31.7324 77.1266 31.7591 77.3856 31.8106 77.639H46.4325Z" fill="#144E5E"/>
<path d="M51.499 78.9297C51.5407 78.5973 51.999 75.2753 51.999 74.9297C52.499 69.4297 49.3129 67.9297 45.9991 67.9297C42.6855 67.9297 39.9991 71.0558 39.9991 74.9119C39.9991 75.2577 39.9572 78.5973 39.9991 78.9297H51.499Z" fill="#184655"/>
<path d="M53.4978 80.9297C53.4492 80.6806 53.4237 80.4255 53.4237 80.1662C53.4237 77.2741 56.5576 74.9297 60.4237 74.9297C64.2896 74.9297 67.4237 77.2741 67.4237 80.1662C67.4237 80.4255 67.3985 80.6804 67.3496 80.9297H53.4978Z" fill="#144E5E"/>
<path d="M40.0562 80.9297C40.018 80.5558 39.998 80.1737 39.998 79.7846C39.998 75.4465 42.4604 71.9297 45.498 71.9297C48.5355 71.9297 50.998 75.4465 50.998 79.7846C50.998 80.1737 50.9781 80.5558 50.9399 80.9297H40.0562Z" fill="#144E5E"/>
<path d="M44.8406 71.9688C42.7113 71.9688 40.8091 73.0845 39.5535 74.8342C38.9141 74.6736 38.2349 74.587 37.5307 74.587C33.7502 74.587 30.6855 77.0806 30.6855 80.1567C30.6855 80.4325 30.7103 80.7036 30.7578 80.9688H51.6133C51.6608 80.5949 51.6855 80.2128 51.6855 79.8237C51.6857 75.4856 48.6211 71.9688 44.8406 71.9688Z" fill="#144E5E"/>
<path d="M65.0422 80.9297C65.0145 80.722 65 80.5095 65 80.2936C65 77.8833 66.7908 75.9297 69 75.9297C71.2092 75.9297 73 77.5197 73 79.9297C73 80.1459 72.891 80.722 72.8633 80.9297H65.0422Z" fill="#144E5E"/>
<path d="M59.719 78.2407C59.6931 78.0462 59.6796 77.8471 59.6796 77.6449C59.6796 75.3873 61.3507 73.5571 63.4121 73.5571C65.4735 73.5571 67.1445 75.3873 67.1445 77.6449C67.1445 77.8473 67.131 78.0462 67.1051 78.2407H59.719Z" fill="#144E5E"/>
<path d="M61.0875 80.7461C61.1134 80.6081 61.127 80.467 61.127 80.3236C61.127 78.7229 59.4559 77.425 57.3945 77.425C55.3331 77.425 53.662 78.7229 53.662 80.3236C53.662 80.4672 53.6756 80.6081 53.7014 80.7461H61.0875Z" fill="#144E5E"/>
<path d="M67.0612 80.7451C67.0941 80.5506 67.1113 80.3517 67.1113 80.1493C67.1113 77.8917 64.9928 76.0615 62.3796 76.0615C59.7665 76.0615 57.648 77.8917 57.648 80.1493C57.648 80.3517 57.6652 80.5506 57.6981 80.7451H67.0612Z" fill="#144E5E"/>
<path d="M63.2373 75.9297C64.5555 75.9297 65.733 76.5494 66.5104 77.5216C66.9062 77.4325 67.3266 77.3844 67.7625 77.3844C70.1028 77.3844 72 78.7698 72 80.4787C72 80.632 71.9847 80.7824 71.9553 80.9297H59.0447C59.0153 80.7221 59 80.5097 59 80.2936C58.9998 77.8835 60.8972 75.9297 63.2373 75.9297Z" fill="#144E5E"/>
<path d="M66.6667 62.1835C66.6418 61.8912 66.6289 61.5925 66.6289 61.2885C66.6289 57.8979 68.2319 55.1494 70.2089 55.1494C72.1861 55.1494 73.7891 57.8981 73.7891 61.2885C73.7891 61.5925 73.7762 61.8912 73.7513 62.1835H66.6667Z" fill="#184655"/>
<path d="M62.6159 60.675C62.591 60.2629 62.5781 59.8415 62.5781 59.4127C62.5781 54.6312 64.1811 50.7549 66.1581 50.7549C68.1353 50.7549 69.7383 54.6312 69.7383 59.4127C69.7383 59.8415 69.7255 60.2629 69.7005 60.675H62.6159Z" fill="#144E5E"/>
<path d="M63.9271 65.9801C63.952 65.6878 63.9648 65.3891 63.9648 65.0851C63.9648 61.6945 62.3619 58.946 60.3847 58.946C58.4074 58.946 56.8047 61.6945 56.8047 65.0851C56.8047 65.3891 56.8175 65.6878 56.8425 65.9801H63.9271Z" fill="#144E5E"/>
<path d="M69.6551 65.9792C69.6866 65.5671 69.7031 65.1457 69.7031 64.7169C69.7031 59.9354 67.6711 56.0591 65.1648 56.0591C62.6582 56.0591 60.6264 59.9354 60.6264 64.7169C60.6264 65.1457 60.643 65.5671 60.6744 65.9792H69.6551Z" fill="#184655"/>
<path d="M66.1723 56.0591C67.425 56.0591 68.5441 57.2889 69.2828 59.2173C69.659 59.0402 70.0584 58.9449 70.4728 58.9449C72.697 58.9449 74.5 61.6936 74.5 65.0839C74.5 65.3879 74.4855 65.6867 74.4573 65.9789H62.188C62.16 65.5669 62.1455 65.1455 62.1455 64.7167C62.1453 59.9352 63.9481 56.0591 66.1723 56.0591Z" fill="#144E5E"/>
<path d="M39.2758 77.3734C39.2411 77.1648 39.223 76.9516 39.223 76.7348C39.223 74.3152 41.4623 72.354 44.2248 72.354C46.9872 72.354 49.2266 74.3155 49.2266 76.7348C49.2266 76.9519 49.2084 77.1648 49.1738 77.3734H39.2758Z" fill="#144E5E"/>
<path d="M33.6156 76.2983C33.581 76.0044 33.5628 75.7035 33.5628 75.3978C33.5628 71.9859 35.8022 69.2197 38.5646 69.2197C41.3271 69.2197 43.5664 71.9859 43.5664 75.3978C43.5664 75.7038 43.5483 76.0044 43.5136 76.2983H33.6156Z" fill="#144E5E"/>
<path d="M35.9453 80.9297C35.9799 80.6804 35.998 80.4255 35.998 80.1664C35.998 77.2744 33.7595 74.9297 30.998 74.9297C28.2366 74.9297 25.998 77.2744 25.998 80.1664C25.998 80.4259 26.0162 80.6804 26.0508 80.9297H35.9453Z" fill="#144E5E"/>
<path d="M43.4543 80.0835C43.4984 79.7895 43.5215 79.4889 43.5215 79.183C43.5215 75.771 40.6825 73.0049 37.1807 73.0049C33.6788 73.0049 30.8398 75.771 30.8398 79.183C30.8398 79.4889 30.863 79.7895 30.907 80.0835H43.4543Z" fill="#144E5E"/>
<path d="M38.584 73.0049C40.3342 73.0049 41.8976 73.8823 42.9298 75.2587C43.4554 75.1325 44.0135 75.0645 44.5923 75.0645C47.6997 75.0645 50.2188 77.0259 50.2188 79.4453C50.2188 79.6623 50.1984 79.8753 50.1594 80.0838H33.0172C32.9781 79.7899 32.9578 79.4893 32.9578 79.1833C32.9575 75.771 35.4768 73.0049 38.584 73.0049Z" fill="#144E5E"/>
<path d="M42.9281 53.8847C42.8947 53.4722 42.8775 53.0505 42.8775 52.6215C42.8775 47.8361 45.0256 43.957 47.6749 43.957C50.3246 43.957 52.4727 47.8364 52.4727 52.6215C52.4727 53.0505 52.4555 53.4722 52.422 53.8847H42.9281Z" fill="#184655"/>
<path d="M37.4984 51.7558C37.465 51.1742 37.4478 50.5794 37.4478 49.9743C37.4478 43.2258 39.5959 37.7549 42.2452 37.7549C44.8949 37.7549 47.043 43.2258 47.043 49.9743C47.043 50.5794 47.0258 51.1742 46.9923 51.7558H37.4984Z" fill="#144E5E"/>
<path d="M39.256 59.2423C39.2895 58.8298 39.3066 58.4082 39.3066 57.9791C39.3066 53.1938 37.1586 49.3147 34.5089 49.3147C31.8593 49.3147 29.7115 53.1938 29.7115 57.9791C29.7115 58.4082 29.7287 58.8298 29.7621 59.2423H39.256Z" fill="#144E5E"/>
<path d="M46.9317 59.2418C46.9739 58.6603 46.9961 58.0655 46.9961 57.4604C46.9961 50.7118 44.273 45.241 40.9143 45.241C37.5553 45.241 34.8326 50.7118 34.8326 57.4604C34.8326 58.0655 34.8547 58.6603 34.8969 59.2418H46.9317Z" fill="#184655"/>
<path d="M42.264 45.241C43.9427 45.241 45.4424 46.9766 46.4324 49.6983C46.9364 49.4483 47.4717 49.3139 48.027 49.3139C51.0076 49.3139 53.4238 53.1933 53.4238 57.9784C53.4238 58.4074 53.4045 58.8291 53.3666 59.2415H36.9247C36.8872 58.66 36.8679 58.0652 36.8679 57.4601C36.8675 50.7115 39.2834 45.241 42.264 45.241Z" fill="#144E5E"/>
<line x1="17" y1="61.7549" x2="17" y2="75.7549" stroke="white"/>
<line x1="43" y1="57.7549" x2="43" y2="71.7549" stroke="#144E5E"/>
<line x1="67" y1="61.7549" x2="67" y2="75.7549" stroke="#144E5E"/>
</svg>
