<svg width="92" height="63" viewBox="0 0 92 63" fill="none" xmlns="http://www.w3.org/2000/svg">
<path fill-rule="evenodd" clip-rule="evenodd" d="M62.0069 0C78.5711 0 92 13.4358 92 30.0069C92 46.5711 78.5711 60 62.0069 60C45.4289 60 32 46.5711 32 30.0069C32.0069 13.4358 45.4289 0 62.0069 0Z" fill="#144E5E"/>
<path d="M62.9986 18.4597C62.9883 17.72 62.5715 17.0565 61.9421 16.7045L32.5655 0.282562C31.919 -0.0889157 31.1102 -0.094945 30.4582 0.269396L30.4505 0.273826C30.4462 0.276286 30.4417 0.278624 30.4373 0.281208L1.05818 16.7046C0.431295 17.055 0 17.72 0 18.509V22.5972C0 25.2754 1.75574 27.5589 4.2 28.4069V34.592C1.75574 35.44 0 37.7235 0 40.4018C0 43.8001 2.82612 46.5649 6.3 46.5649C9.77388 46.5649 12.6 43.8002 12.6 40.4018C12.6 37.7235 10.8443 35.44 8.4 34.592V28.4069C9.18222 28.1355 9.89375 27.7175 10.5 27.186C12.2235 28.6972 14.635 29.158 16.8 28.4069V34.592C14.3557 35.44 12.6 37.7235 12.6 40.4018C12.6 43.8001 15.4261 46.5649 18.9 46.5649C22.3739 46.5649 25.2 43.8002 25.2 40.4018C25.2 37.7235 23.4443 35.44 21 34.592V28.4069C23.1624 29.1572 25.5743 28.6991 27.3 27.186C27.9063 27.7175 28.6178 28.1355 29.4 28.4069V50.6737H14.7001C11.2264 50.6737 8.40013 53.4384 8.40013 56.8369V60.9456C8.40013 62.0802 9.34032 63 10.5001 63H52.5001C53.6599 63 54.6001 62.0802 54.6001 60.9456V56.8369C54.6001 53.4386 51.774 50.6737 48.3001 50.6737H33.6V28.4069C34.3822 28.1355 35.0937 27.7175 35.7 27.186C37.4235 28.6972 39.835 29.158 42 28.4069V34.592C39.5557 35.44 37.8 37.7235 37.8 40.4018C37.8 43.8001 40.6261 46.5649 44.1 46.5649C47.5739 46.5649 50.4 43.8002 50.4 40.4018C50.4 37.7235 48.6443 35.44 46.2 34.592V28.4069C48.3624 29.1572 50.7743 28.6991 52.5 27.186C53.1063 27.7175 53.8178 28.1355 54.6 28.4069V34.592C52.1557 35.44 50.4 37.7235 50.4 40.4018C50.4 43.8001 53.2261 46.5649 56.7 46.5649C60.1739 46.5649 63 43.8002 63 40.4018C63 37.7235 61.2443 35.44 58.8 34.592V28.4069C61.2443 27.5588 63 25.2753 63 22.5971V18.5088C63 18.5077 63 18.5065 63 18.5054V18.4883C63 18.4787 62.9986 18.4693 62.9986 18.4597ZM6.30013 42.456C5.14221 42.456 4.20013 41.5344 4.20013 40.4016C4.20013 39.2689 5.14221 38.3473 6.30013 38.3473C7.45804 38.3473 8.40013 39.2689 8.40013 40.4016C8.40013 41.5344 7.45817 42.456 6.30013 42.456ZM8.40013 22.5971C8.40013 23.7298 7.45817 24.6514 6.30013 24.6514C5.14221 24.6514 4.20013 23.7298 4.20013 22.5971V20.5427H8.40013V22.5971ZM14.7001 24.6514C13.5422 24.6514 12.6001 23.7298 12.6001 22.5971V20.5427H16.8001V22.5971C16.8001 23.7298 15.8582 24.6514 14.7001 24.6514ZM18.9001 42.456C17.7422 42.456 16.8001 41.5344 16.8001 40.4016C16.8001 39.2689 17.7422 38.3473 18.9001 38.3473C20.058 38.3473 21.0001 39.2689 21.0001 40.4016C21.0001 41.5344 20.0582 42.456 18.9001 42.456ZM17.8503 16.4339C16.9958 16.4339 10.8498 16.4339 10.0078 16.4339L23.7319 8.76195L17.8503 16.4339ZM25.2001 22.5971C25.2001 23.7298 24.2582 24.6514 23.1001 24.6514C21.9422 24.6514 21.0001 23.7298 21.0001 22.5971V20.5427H25.2001V22.5971ZM48.3 54.7823C49.458 54.7823 50.4 55.7038 50.4 56.8367V58.8911H12.6001V56.8367C12.6001 55.704 13.5422 54.7823 14.7001 54.7823H48.3ZM33.6 22.5971C33.6 23.7298 32.658 24.6514 31.5 24.6514C30.3421 24.6514 29.4 23.7298 29.4 22.5971V20.5427H33.6V22.5971ZM23.1001 16.4339L31.5 5.4771L39.9 16.4338C38.1337 16.4339 24.9195 16.4339 23.1001 16.4339ZM39.9 24.6514C38.7421 24.6514 37.8 23.7298 37.8 22.5971V20.5427H42V22.5971C42 23.7298 41.0582 24.6514 39.9 24.6514ZM44.1 42.456C42.9421 42.456 42 41.5344 42 40.4016C42 39.2689 42.9421 38.3473 44.1 38.3473C45.2579 38.3473 46.2 39.2689 46.2 40.4016C46.2 41.5344 45.2582 42.456 44.1 42.456ZM50.4 22.5971C50.4 23.7298 49.458 24.6514 48.3 24.6514C47.1421 24.6514 46.2 23.7298 46.2 22.5971V20.5427H50.4V22.5971V22.5971ZM45.15 16.4339L39.2683 8.76207L52.9924 16.4339C52.1505 16.4339 46.0045 16.4339 45.15 16.4339ZM56.7 42.456C55.5421 42.456 54.6 41.5344 54.6 40.4016C54.6 39.2689 55.5421 38.3473 56.7 38.3473C57.8579 38.3473 58.8 39.2689 58.8 40.4016C58.8 41.5344 57.8582 42.456 56.7 42.456ZM58.8 22.5971C58.8 23.7298 57.8579 24.6514 56.7 24.6514C55.5421 24.6514 54.6 23.7298 54.6 22.5971V20.5427H58.8V22.5971V22.5971Z" fill="#F2C231"/>
</svg>
