<svg width="36" height="27" viewBox="0 0 36 27" fill="none" xmlns="http://www.w3.org/2000/svg">
<g clip-path="url(#clip0_306_3680)">
<path d="M35.2047 4.77426C34.9982 4.00962 34.5954 3.31253 34.0364 2.7524C33.4774 2.19226 32.7818 1.78862 32.0187 1.58168C29.225 0.818237 17.9815 0.818237 17.9815 0.818237C17.9815 0.818237 6.73741 0.841346 3.94375 1.60479C3.18065 1.81174 2.48497 2.2154 1.92598 2.77556C1.367 3.33573 0.96422 4.03285 0.757752 4.79751C-0.087264 9.77132 -0.415061 17.3503 0.780955 22.1251C0.987445 22.8897 1.39024 23.5868 1.94922 24.147C2.5082 24.7071 3.20387 25.1107 3.96695 25.3177C6.76061 26.0811 18.0044 26.0811 18.0044 26.0811C18.0044 26.0811 29.2481 26.0811 32.0416 25.3177C32.8047 25.1108 33.5004 24.7071 34.0594 24.147C34.6184 23.5869 35.0212 22.8898 35.2277 22.1251C36.119 17.1442 36.3937 9.5701 35.2047 4.7744V4.77426Z" fill="#FF0000"/>
<path d="M14.403 18.863L23.7303 13.4496L14.403 8.03613V18.863Z" fill="white"/>
</g>
<defs>
<clipPath id="clip0_306_3680">
<rect width="36" height="25.3636" fill="white" transform="translate(0 0.818237)"/>
</clipPath>
</defs>
</svg>
