<svg width="36" height="36" viewBox="0 0 36 36" fill="none" xmlns="http://www.w3.org/2000/svg">
<path d="M18.0059 0C10.491 0 8.29324 0.0077545 7.86603 0.0432037C6.32386 0.17143 5.36422 0.414312 4.31876 0.934971C3.51306 1.33516 2.87764 1.79904 2.25053 2.44931C1.10844 3.6352 0.41626 5.09415 0.165692 6.82839C0.0438687 7.67031 0.00842918 7.84202 0.00123054 12.1424C-0.00153817 13.5759 0.00123054 15.4625 0.00123054 17.9929C0.00123054 25.5037 0.00953667 27.6999 0.0455299 28.1264C0.170122 29.6275 0.405462 30.5718 0.90383 31.6049C1.85627 33.5823 3.67531 35.0667 5.81829 35.6206C6.56031 35.8117 7.37984 35.9169 8.43195 35.9668C8.87772 35.9862 13.4212 36 17.9674 36C22.5136 36 27.0598 35.9945 27.4945 35.9723C28.7128 35.915 29.4202 35.82 30.2023 35.6178C31.2649 35.3452 32.2552 34.8439 33.104 34.1489C33.9528 33.4539 34.6398 32.5819 35.1168 31.5938C35.6055 30.5857 35.8533 29.6053 35.9654 28.1826C35.9898 27.8724 36 22.927 36 17.9882C36 13.0486 35.9889 8.11232 35.9646 7.80214C35.851 6.35648 35.6032 5.38439 35.0988 4.35692C34.6849 3.51584 34.2253 2.88772 33.558 2.24548C32.3675 1.10779 30.9111 0.41542 29.1754 0.16506C28.3345 0.0434806 28.167 0.00747756 23.8645 0H18.0059Z" fill="url(#paint0_radial_103_13058)"/>
<path d="M18.0059 0C10.491 0 8.29324 0.0077545 7.86603 0.0432037C6.32386 0.17143 5.36422 0.414312 4.31876 0.934971C3.51306 1.33516 2.87764 1.79904 2.25053 2.44931C1.10844 3.6352 0.41626 5.09415 0.165692 6.82839C0.0438687 7.67031 0.00842918 7.84202 0.00123054 12.1424C-0.00153817 13.5759 0.00123054 15.4625 0.00123054 17.9929C0.00123054 25.5037 0.00953667 27.6999 0.0455299 28.1264C0.170122 29.6275 0.405462 30.5718 0.90383 31.6049C1.85627 33.5823 3.67531 35.0667 5.81829 35.6206C6.56031 35.8117 7.37984 35.9169 8.43195 35.9668C8.87772 35.9862 13.4212 36 17.9674 36C22.5136 36 27.0598 35.9945 27.4945 35.9723C28.7128 35.915 29.4202 35.82 30.2023 35.6178C31.2649 35.3452 32.2552 34.8439 33.104 34.1489C33.9528 33.4539 34.6398 32.5819 35.1168 31.5938C35.6055 30.5857 35.8533 29.6053 35.9654 28.1826C35.9898 27.8724 36 22.927 36 17.9882C36 13.0486 35.9889 8.11232 35.9646 7.80214C35.851 6.35648 35.6032 5.38439 35.0988 4.35692C34.6849 3.51584 34.2253 2.88772 33.558 2.24548C32.3675 1.10779 30.9111 0.41542 29.1754 0.16506C28.3345 0.0434806 28.167 0.00747756 23.8645 0H18.0059Z" fill="url(#paint1_radial_103_13058)"/>
<path d="M17.9977 4.70807C14.3884 4.70807 13.9354 4.72386 12.5178 4.78838C11.103 4.85319 10.1373 5.07724 9.29229 5.40597C8.41821 5.74551 7.67675 6.1997 6.93806 6.93887C6.19881 7.67777 5.74474 8.41943 5.40419 9.29347C5.07472 10.139 4.85045 11.1053 4.78677 12.5199C4.72364 13.9379 4.70703 14.3912 4.70703 18.0015C4.70703 21.6118 4.72309 22.0635 4.78732 23.4814C4.85239 24.8966 5.07638 25.8626 5.40475 26.7079C5.74447 27.5822 6.19854 28.3239 6.9375 29.0627C7.67592 29.8022 8.41738 30.2575 9.29091 30.597C10.1365 30.9258 11.1025 31.1498 12.517 31.2146C13.9346 31.2791 14.3873 31.2949 17.9963 31.2949C21.6059 31.2949 22.0574 31.2791 23.475 31.2146C24.8898 31.1498 25.8567 30.9258 26.7022 30.597C27.576 30.2575 28.3164 29.8022 29.0548 29.0627C29.794 28.3239 30.2481 27.5822 30.5887 26.7081C30.9154 25.8626 31.1396 24.8964 31.2061 23.4817C31.2698 22.0638 31.2864 21.6118 31.2864 18.0015C31.2864 14.3912 31.2698 13.9381 31.2061 12.5202C31.1396 11.105 30.9154 10.139 30.5887 9.29375C30.2481 8.41943 29.794 7.67777 29.0548 6.93887C28.3155 6.19943 27.5763 5.74523 26.7014 5.40597C25.8542 5.07724 24.8879 4.85319 23.4731 4.78838C22.0555 4.72386 21.6042 4.70807 17.9938 4.70807H17.9977ZM16.8055 7.10366C17.1593 7.1031 17.5541 7.10366 17.9977 7.10366C21.546 7.10366 21.9666 7.1164 23.3679 7.18009C24.6636 7.23936 25.3669 7.45593 25.8353 7.63789C26.4555 7.87883 26.8977 8.16685 27.3626 8.63212C27.8277 9.09739 28.1156 9.54051 28.3571 10.1609C28.539 10.6289 28.7558 11.3324 28.8147 12.6285C28.8784 14.0298 28.8923 14.4508 28.8923 17.9985C28.8923 21.5461 28.8784 21.9671 28.8147 23.3684C28.7555 24.6646 28.539 25.368 28.3571 25.836C28.1162 26.4564 27.8277 26.8981 27.3626 27.3631C26.8974 27.8284 26.4558 28.1164 25.8353 28.3574C25.3674 28.5401 24.6636 28.7562 23.3679 28.8154C21.9669 28.8791 21.546 28.893 17.9977 28.893C14.449 28.893 14.0284 28.8791 12.6275 28.8154C11.3317 28.7556 10.6285 28.539 10.1597 28.3571C9.53954 28.1161 9.09654 27.8281 8.6314 27.3628C8.16626 26.8976 7.87831 26.4556 7.63688 25.8349C7.45498 25.3669 7.23819 24.6634 7.17921 23.3673C7.11553 21.966 7.1028 21.545 7.1028 17.9951C7.1028 14.4452 7.11553 14.0265 7.17921 12.6251C7.23846 11.329 7.45498 10.6256 7.63688 10.157C7.87776 9.53663 8.16626 9.09352 8.6314 8.62825C9.09654 8.16298 9.53954 7.87495 10.1597 7.63345C10.6282 7.45067 11.3317 7.23465 12.6275 7.17511C13.8535 7.11972 14.3286 7.1031 16.8055 7.10033V7.10366ZM25.0917 9.31092C24.7762 9.31092 24.4679 9.40449 24.2056 9.5798C23.9433 9.75511 23.7389 10.0043 23.6182 10.2958C23.4975 10.5873 23.466 10.9081 23.5276 11.2175C23.5891 11.527 23.7411 11.8112 23.9642 12.0343C24.1873 12.2574 24.4715 12.4093 24.7809 12.4708C25.0903 12.5322 25.4109 12.5006 25.7023 12.3798C25.9937 12.2589 26.2428 12.0544 26.4179 11.792C26.5931 11.5296 26.6865 11.2211 26.6864 10.9056C26.6864 10.0249 25.9721 9.31037 25.0917 9.31037V9.31092ZM17.9977 11.1748C14.2286 11.1748 11.1728 14.2314 11.1728 18.0015C11.1728 21.7716 14.2286 24.8268 17.9977 24.8268C21.7667 24.8268 24.8217 21.7716 24.8217 18.0015C24.8217 14.2314 21.7664 11.1748 17.9974 11.1748H17.9977ZM17.9977 13.5704C20.4441 13.5704 22.4276 15.5541 22.4276 18.0015C22.4276 20.4486 20.4441 22.4326 17.9977 22.4326C15.551 22.4326 13.5677 20.4486 13.5677 18.0015C13.5677 15.5541 15.551 13.5704 17.9977 13.5704V13.5704Z" fill="white"/>
<defs>
<radialGradient id="paint0_radial_103_13058" cx="0" cy="0" r="1" gradientUnits="userSpaceOnUse" gradientTransform="translate(9.56255 38.7728) rotate(-90) scale(35.6787 33.184)">
<stop stop-color="#FFDD55"/>
<stop offset="0.1" stop-color="#FFDD55"/>
<stop offset="0.5" stop-color="#FF543E"/>
<stop offset="1" stop-color="#C837AB"/>
</radialGradient>
<radialGradient id="paint1_radial_103_13058" cx="0" cy="0" r="1" gradientUnits="userSpaceOnUse" gradientTransform="translate(-6.03019 2.59338) rotate(78.6806) scale(15.9485 65.7404)">
<stop stop-color="#3771C8"/>
<stop offset="0.128" stop-color="#3771C8"/>
<stop offset="1" stop-color="#6600FF" stop-opacity="0"/>
</radialGradient>
</defs>
</svg>
