<svg width="36" height="26" viewBox="0 0 36 26" fill="none" xmlns="http://www.w3.org/2000/svg">
<g clip-path="url(#clip0_103_13063)">
<path d="M35.2049 4.2742C34.9984 3.50956 34.5956 2.81247 34.0367 2.25233C33.4777 1.6922 32.782 1.28856 32.0189 1.08162C29.2253 0.318176 17.9817 0.318176 17.9817 0.318176C17.9817 0.318176 6.73765 0.341285 3.944 1.10473C3.18089 1.31168 2.48521 1.71534 1.92623 2.2755C1.36725 2.83567 0.964464 3.53279 0.757996 4.29745C-0.0870198 9.27126 -0.414817 16.8502 0.781199 21.625C0.987689 22.3897 1.39048 23.0868 1.94946 23.6469C2.50844 24.207 3.20411 24.6107 3.9672 24.8176C6.76085 25.5811 18.0047 25.5811 18.0047 25.5811C18.0047 25.5811 29.2483 25.5811 32.0419 24.8176C32.805 24.6107 33.5007 24.2071 34.0597 23.6469C34.6187 23.0868 35.0215 22.3897 35.228 21.625C36.1193 16.6442 36.3939 9.07004 35.2049 4.27434V4.2742Z" fill="#FF0000"/>
<path d="M14.4033 18.363L23.7307 12.9496L14.4033 7.53613V18.363Z" fill="white"/>
</g>
<defs>
<clipPath id="clip0_103_13063">
<rect width="36" height="25.3636" fill="white" transform="translate(0 0.318176)"/>
</clipPath>
</defs>
</svg>
