<svg width="36" height="36" viewBox="0 0 36 36" fill="none" xmlns="http://www.w3.org/2000/svg">
<g clip-path="url(#clip0_103_13052)">
<path d="M0.767891 17.7846C0.767047 20.8093 1.56355 23.7627 3.07808 26.3658L0.623047 35.2601L9.7963 32.8734C12.3335 34.244 15.1762 34.9621 18.065 34.9623H18.0726C27.6091 34.9623 35.372 27.2623 35.3761 17.7981C35.378 13.212 33.5796 8.89954 30.3124 5.65508C27.0456 2.41089 22.701 0.623309 18.0719 0.621216C8.53433 0.621216 0.771969 8.32075 0.768031 17.7846" fill="url(#paint0_linear_103_13052)"/>
<path d="M0.150469 17.779C0.149484 20.9125 0.974531 23.9715 2.54306 26.6679L0 35.881L9.50217 33.4088C12.1203 34.8253 15.0681 35.572 18.0676 35.5732H18.0754C27.954 35.5732 35.9958 27.5962 36 17.7932C36.0017 13.0423 34.1387 8.57484 30.7547 5.21414C27.3703 1.85386 22.8703 0.00195349 18.0754 0C8.19506 0 0.154547 7.97581 0.150609 17.779H0.150469ZM5.80922 26.2035L5.45442 25.6447C3.96295 23.2916 3.17573 20.5723 3.17686 17.7801C3.18009 9.63195 9.86316 3.00279 18.081 3.00279C22.0607 3.00447 25.8007 4.54381 28.6138 7.33674C31.4267 10.13 32.9746 13.843 32.9736 17.7921C32.97 25.9402 26.2867 32.5702 18.0754 32.5702H18.0695C15.3958 32.5688 12.7735 31.8564 10.4867 30.51L9.94247 30.1898L4.30369 31.6567L5.80922 26.2034V26.2035Z" fill="url(#paint1_linear_103_13052)"/>
<path d="M13.5957 10.3463C13.2602 9.6063 12.9071 9.59137 12.588 9.57839C12.3267 9.56723 12.0281 9.56807 11.7296 9.56807C11.431 9.56807 10.9457 9.67956 10.5355 10.124C10.1248 10.5688 8.96777 11.6438 8.96777 13.8302C8.96777 16.0167 10.5727 18.1297 10.7965 18.4264C11.0205 18.7227 13.8949 23.353 18.4472 25.1343C22.2305 26.6146 23.0005 26.3202 23.8216 26.246C24.6428 26.172 26.4715 25.1713 26.8446 24.1336C27.2179 23.096 27.2179 22.2066 27.106 22.0207C26.9941 21.8356 26.6954 21.7243 26.2475 21.5022C25.7995 21.2799 23.5976 20.2048 23.1871 20.0565C22.7764 19.9083 22.4779 19.8343 22.1792 20.2793C21.8805 20.7236 21.0229 21.7243 20.7614 22.0207C20.5003 22.3178 20.2389 22.3548 19.7911 22.1325C19.3429 21.9095 17.9006 21.4408 16.1893 19.927C14.8579 18.749 13.959 17.2944 13.6977 16.8494C13.4364 16.4051 13.6697 16.1643 13.8943 15.9429C14.0955 15.7437 14.3423 15.4239 14.5665 15.1645C14.7898 14.905 14.8643 14.7198 15.0137 14.4235C15.1631 14.1268 15.0883 13.8673 14.9765 13.645C14.8643 13.4227 13.994 11.225 13.5957 10.3464" fill="white"/>
</g>
<defs>
<linearGradient id="paint0_linear_103_13052" x1="17.9996" y1="35.2601" x2="17.9996" y2="0.621216" gradientUnits="userSpaceOnUse">
<stop stop-color="#1FAF38"/>
<stop offset="1" stop-color="#60D669"/>
</linearGradient>
<linearGradient id="paint1_linear_103_13052" x1="18" y1="35.881" x2="18" y2="0" gradientUnits="userSpaceOnUse">
<stop stop-color="#F9F9F9"/>
<stop offset="1" stop-color="white"/>
</linearGradient>
<clipPath id="clip0_103_13052">
<rect width="36" height="36" fill="white"/>
</clipPath>
</defs>
</svg>
